<?xml version="1.0" encoding="utf-8"?>
<!-- Generator: Adobe Illustrator 25.3.0, SVG Export Plug-In . SVG Version: 6.00 Build 0)  -->
<svg version="1.1" id="contents" xmlns="http://www.w3.org/2000/svg" xmlns:xlink="http://www.w3.org/1999/xlink" x="0px" y="0px"
	 viewBox="0 0 800 800" style="enable-background:new 0 0 800 800;" xml:space="preserve">
<style type="text/css">
	.st0{fill:#EAEAEA;stroke:#000000;stroke-miterlimit:10;}
</style>
<g>
	<path class="st0" d="M654.1,452c0,0-95.4-111-95.8-111.4c-4-4.3-8.8-7.6-13.8-9.8c-19.8-9.6-46.8-8-74.8-7.6
		c-16.3,32-49.5,54-87.8,54c-21,0-40.6-6.6-56.6-17.9l-32.7,101.1L232.1,532c-11.6,13.8-11.3,34.4,1.4,47.8
		c13.6,14.3,36.3,14.9,50.6,1.2l75.6-71.9c3.6-3.4,6.6-7.9,8.3-12.9l5.3-15.1l18.4,124.8h193.5l3.3-80.7l-130-15.5
		c-25-3-42.8-25.7-39.9-50.6c2.7-22.9,22.2-40.2,45.3-40.2c0.4,0,41.7,1.3,53.5,1.8l12.7,13.5l-65.3-2c-16.5-0.4-31,11.7-33,28.4
		c-2.1,17.7,10.5,33.7,28.2,35.8l160.3,19.1c10.3,1.2,21.2-1.8,29.7-9.1C666.2,492.5,668,468.2,654.1,452z"/>
	
		<ellipse transform="matrix(0.7071 -0.7071 0.7071 0.7071 -85.217 351.6774)" class="st0" cx="381.9" cy="278.7" rx="84.5" ry="84.5"/>
	<polygon class="st0" points="152.9,289.4 262.6,358.6 263.8,357.3 208.5,298.7 252.6,282.7 137.1,205.5 136.5,206.2 198.1,273 	"/>
	<polygon class="st0" points="261.2,447.9 209.8,422.7 235.2,401.1 139.2,378.5 139,379.1 196.5,408.2 170.6,430.4 260.7,449.1 	"/>
</g>
</svg>
