<?xml version="1.0" encoding="utf-8"?>
<!-- Generator: Adobe Illustrator 25.3.0, SVG Export Plug-In . SVG Version: 6.00 Build 0)  -->
<svg version="1.1" id="contents" xmlns="http://www.w3.org/2000/svg" xmlns:xlink="http://www.w3.org/1999/xlink" x="0px" y="0px"
	 viewBox="0 0 800 800" style="enable-background:new 0 0 800 800;" xml:space="preserve">
<style type="text/css">
	.st0{fill:#EAEAEA;stroke:#000000;stroke-miterlimit:10;}
</style>
<g>
	<g>
		<path class="st0" d="M650.6,539.1l-109.2-5.2c0,0-45.5-121.6-46.3-123.2l-35.6-122.2h43.1l59.2,71.5c12,14.4,33.8,16.8,48.6,4.2
			c13.6-11.6,15.6-31.8,5.2-46.4L550.9,227c-6.5-8.9-17.1-14.9-29-14.9L387,211.4c-44.3,0-66.3,19.2-83.1,36.3
			c-0.9,0.9-55.7,54.2-55.7,54.2l-106,10.3c-16,1.5-28.5,15.3-27.8,32.1c0.7,15.8,14.8,29,30.6,29.4l121.6,3.1
			c8.4,0.2,17.1-2.9,23.6-9.2l37.1-35.8l40.8,95.7L195.5,672.2c-11.6,16.5-8.9,39.5,6.8,52.6c16.6,13.9,41.3,11.7,55.2-4.9
			L427.6,517l44.7,75.4l3.9,6.5c7.1,11.9,20.3,19.6,35.1,18.9l139.8-6.6c19.4-1,35.3-17.5,34.3-37.8
			C684.6,554.7,669.2,540,650.6,539.1z"/>
	</g>
	<ellipse transform="matrix(0.7067 -0.7075 0.7075 0.7067 6.3675 279.3942)" class="st0" cx="340.1" cy="132" rx="66" ry="65.9"/>
</g>
</svg>
