<?xml version="1.0" encoding="utf-8"?>
<!-- Generator: Adobe Illustrator 25.3.0, SVG Export Plug-In . SVG Version: 6.00 Build 0)  -->
<svg version="1.1" id="contents" xmlns="http://www.w3.org/2000/svg" xmlns:xlink="http://www.w3.org/1999/xlink" x="0px" y="0px"
	 viewBox="0 0 800 800" style="enable-background:new 0 0 800 800;" xml:space="preserve">
<style type="text/css">
	.st0{fill:#EAEAEA;stroke:#000000;stroke-miterlimit:10;}
</style>
<g>
	<path class="st0" d="M387.7,397.8l-52.1,150.5c-8.3,23.9-30.8,40-56.1,40c0,0,0,0,0,0c-6.6,0-13.1-1.1-19.4-3.3
		c-16-5.5-28.9-17.7-35.4-33.4l-16.1-39.2l15.3-13.1l17.8,43.3l0.7,1.6c4.3,10.2,12.7,18.7,24,22.6c21,7.3,43.9-3.9,51.2-24.9
		l66.3-191.8c5.5-16.1-2.1-34.1-18-41c-16.7-7.3-36.1,0.4-43.4,17l-44.1,101.2c-3.4-3-7.2-5.5-11.4-7.2l14-29.3h0
		c-49.5,0-89.7,40.1-89.7,89.7V680h251.6V480.6C442.9,443.3,420.1,411.3,387.7,397.8z"/>
	<path class="st0" d="M280.5,374.7l24.4-56.1c8.3-19,27.1-31.3,47.8-31.3c7.2,0,14.2,1.5,20.8,4.4c0.3,0.1,0.5,0.3,0.8,0.4
		c0.1-1.6,0.1-3.1,0.1-4.7c0-48.4-39.2-87.6-87.6-87.6s-87.6,39.2-87.6,87.6C199.3,333.6,235.1,371.4,280.5,374.7z"/>
	<path class="st0" d="M600.5,159.5c-8.8-14.6-24.2-26.5-43.3-33.4c-19.5-7.1-39.3-7.9-55.7-2.4c-16.1,5.4-28.7,16.7-36.2,32.5
		c-1.4,3-0.3,6.7,2.7,8.3l25.2,13.9c0.3,0.2,0.6,0.3,0.9,0.4c1.3,0.5,2.7,0.5,4,0.1c1.6-0.5,3-1.7,3.8-3.2
		c8-15.7,23.6-22.1,39.7-16.3c17.2,6.2,26.1,20.5,21.2,34c-4.1,11.2-13.3,18.1-29.1,21.8c-22.2,4.9-38.9,13.1-47.8,37.7
		c-0.9,2.4-2.3,6.4-3.5,10.3c-1,3.2,0.8,6.6,3.9,7.8l27,9.8c1.6,0.6,3.4,0.5,4.9-0.2c1.5-0.7,2.7-2.1,3.3-3.7
		c0.9-2.7,1.9-5.4,2.6-7.4l0.5-1.3c4.8-13.3,14.1-15.5,29.5-19.2l0.1,0c1.3-0.3,2.5-0.6,3.9-0.9c12.7-3.2,22.2-7.8,29.9-14.6
		c7.6-6.7,13.4-15.7,17.7-27.5C611.1,190.5,609.3,174.1,600.5,159.5z"/>
	<path class="st0" d="M494.5,293.5c-13.1-4.8-27.6,2-32.4,15.1s2,27.6,15.1,32.4c13.1,4.8,27.6-2,32.4-15.1S507.6,298.3,494.5,293.5
		z"/>
</g>
</svg>
