<?xml version="1.0" encoding="utf-8"?>
<!-- Generator: Adobe Illustrator 25.3.0, SVG Export Plug-In . SVG Version: 6.00 Build 0)  -->
<svg version="1.1" id="Layer_1" xmlns="http://www.w3.org/2000/svg" xmlns:xlink="http://www.w3.org/1999/xlink" x="0px" y="0px"
	 viewBox="0 0 102 32" style="enable-background:new 0 0 102 32;" xml:space="preserve">
<style type="text/css">
	.st0{opacity:0.5;clip-path:url(#SVGID_2_);}
	.st1{fill:#EAEAEA;}
</style>
<g>
	<defs>
		<rect id="SVGID_1_" width="102" height="32"/>
	</defs>
	<clipPath id="SVGID_2_">
		<use xlink:href="#SVGID_1_"  style="overflow:visible;"/>
	</clipPath>
	<g class="st0">
		<path class="st1" d="M20.7,19.8v4.9h-2.4V11.5h2.4v1.3c0.6-0.9,1.7-1.5,3-1.5c2.4,0,4.6,1.9,4.6,4.9s-2.2,4.9-4.5,4.9
			C22.4,21.1,21.4,20.6,20.7,19.8z M25.8,16.2c0-1.5-1.2-2.7-2.6-2.7c-1.5,0-2.6,1.2-2.6,2.7c0,1.5,1.1,2.7,2.6,2.7
			C24.7,18.8,25.8,17.7,25.8,16.2L25.8,16.2z"/>
		<path class="st1" d="M50.2,11.5h2.4v1.1c0.6-0.8,1.5-1.3,2.6-1.3c1.4,0,2.4,0.6,2.9,1.6c0.6-1,1.7-1.6,3-1.6
			c2.4,0,3.6,1.5,3.6,3.8v5.8h-2.5v-5.5c0-1.3-0.5-2.1-1.8-2.1c-1.1,0-1.8,0.7-1.8,2.2v5.3h-2.5v-5.5c0-1.3-0.5-2-1.7-2
			c-1.1,0-1.9,0.8-1.9,2.3v5.3h-2.4V11.5z"/>
		<path class="st1" d="M70.8,11.3c-2,0-3.7,1.1-4.5,2.8c-0.3,0.7-0.5,1.4-0.5,2.2c0,2.8,2,4.9,5,4.9c2,0,3.3-0.8,4.2-2l-2-1.1
			C72.7,18.6,72,19,70.9,19c-1.4,0-2.4-0.8-2.7-2h7.5c0-0.3,0.1-0.5,0.1-0.8v-0.1C75.7,13.3,73.7,11.3,70.8,11.3z M68.3,15.1
			c0.4-1.1,1.3-1.8,2.6-1.8c1.3,0,2.2,0.6,2.5,1.8H68.3z"/>
		<path class="st1" d="M76.9,11.5h2.4v1.2c0.6-0.9,1.6-1.4,2.8-1.4c2.2,0,3.7,1.5,3.7,3.9v5.7h-2.5v-5.3c0-1.3-0.6-2.2-1.9-2.2
			c-1.1,0-2,0.8-2,2.3v5.2h-2.4V11.5z"/>
		<path class="st1" d="M86.4,11.5h1.8V9.4L90.6,8v3.5h2.5v2.1h-2.5v3.9c0,1,0.4,1.3,1,1.3c0.3,0,0.6-0.1,0.9-0.4l1.1,1.9
			c-0.6,0.5-1.4,0.7-2.3,0.7c-2,0-3.1-0.9-3.1-3.5v-4h-1.8V11.5z"/>
		<path class="st1" d="M36.6,12.7c-0.6-0.9-1.7-1.4-2.9-1.4c-2.4,0-4.6,1.9-4.6,4.9c0,3,2.2,4.9,4.6,4.9c1.2,0,2.3-0.6,3-1.5v1.3
			h2.4v-9.5h-2.4V12.7z M34.1,18.8c-1.5,0-2.6-1.2-2.6-2.7c0-1.5,1.2-2.7,2.6-2.7c1.5,0,2.6,1.2,2.6,2.7
			C36.7,17.6,35.6,18.8,34.1,18.8z"/>
		<path class="st1" d="M47,11.5l-2.3,6.1l-2.5-6.1h-2.6l3.8,9.1l0,0.1l-1.5,4l0,0h2.5l5.1-13.2H47z"/>
		<path class="st1" d="M95.8,17.9c0.4,0.8,1.2,1.3,2.2,1.3c1,0,1.5-0.5,1.5-1c0-0.7-1-0.8-2.2-1.1c-1.6-0.3-3.4-0.8-3.4-2.8
			c0-1.6,1.5-3,3.9-3c1.9,0,3,0.6,3.9,1.7l-2,1.2c-0.4-0.6-1-1-1.9-1c-0.9,0-1.4,0.4-1.4,0.9c0,0.6,0.8,0.8,2.2,1
			c1.6,0.3,3.4,0.8,3.4,2.9c0,1.5-1.3,3.1-4.1,3.1c-2.1,0-3.4-0.7-4.2-2l0,0L95.8,17.9z"/>
		<path class="st1" d="M14.6,15.6c-0.2-1.5-0.9-3-2.1-4c-1.2-1-2.6-1.6-4.2-1.6H8.2c-0.2,0-0.5,0-0.7,0c-0.9,0.1-1.7,0.4-2.5,0.8
			l0,0c0,0,0,0,0,0l0,0C1.3,13.1,0,18.1,0,21.1l2.9-1.7c1,2,3,3.3,5.2,3.3h0.1c0.2,0,0.5,0,0.7,0c1.7-0.2,3.2-1,4.3-2.4
			C14.3,19,14.8,17.3,14.6,15.6z"/>
	</g>
</g>
</svg>
