<?xml version="1.0" encoding="utf-8"?>
<!-- Generator: Adobe Illustrator 25.3.0, SVG Export Plug-In . SVG Version: 6.00 Build 0)  -->
<svg version="1.1" id="contents" xmlns="http://www.w3.org/2000/svg" xmlns:xlink="http://www.w3.org/1999/xlink" x="0px" y="0px"
	 viewBox="0 0 800 800" style="enable-background:new 0 0 800 800;" xml:space="preserve">
<style type="text/css">
	.st0{fill:#EAEAEA;stroke:#000000;stroke-miterlimit:10;}
</style>
<g>
	<path class="st0" d="M658.8,467.6H632c-9.2,9.4-21.3,14.8-33.5,14.8h-85.3l-3.9,17.7l19.1,74.6c2.9,11.2,1.2,22.8-4.7,32.7
		c-5.9,9.9-15.3,17-26.4,19.8c-3.5,0.9-7.1,1.4-10.7,1.4c-1.9,0-3.8-0.2-5.6-0.4l-11.4,51.4H685L658.8,467.6z"/>
	<path class="st0" d="M385.1,418.8l-33.1,28c-7.5,6.3-9.6,17.4-4.4,26.1c5.8,9.7,18.3,12.9,28,7.1l20.1-12l-8.2-21.5
		C384.1,437.5,383.3,427.9,385.1,418.8z"/>
	<path class="st0" d="M236.6,249.7c0.3-1,0.1-2-0.4-2.9c-1.4-2.2-2.8-4.6-3.8-6.4l-0.6-1.1c-7.2-12.4-2.8-21.2,3.9-34.5l0-0.1
		c0.6-1.1,1.1-2.3,1.7-3.4c5.2-10.6,7.5-19.9,7.3-29c-0.2-9.1-3.1-18.2-8.8-28.1c-7.2-12.5-19.5-20.7-34.6-23.1
		c-15.2-2.4-32.4,1.4-48.4,10.6c-16.3,9.4-28.4,22.6-34.1,37.2c-5.6,14.2-5,29.3,1.5,43.6c0.8,1.8,2.9,2.7,4.8,2l25-9.7
		c0.2-0.1,0.4-0.2,0.5-0.3c0.7-0.4,1.3-1,1.6-1.8c0.4-0.9,0.4-2,0-3c-6.9-16.2-1.7-32.2,13-40.7c15.8-9.1,32.5-6.6,39.8,6
		c5.9,10.3,5.4,21.7-1.8,35.8l0,0c-9.5,18.1-13.4,34.4-1.7,54.6c1.2,2,3.1,5.4,5.2,8.5c1.1,1.7,3.3,2.2,5.1,1.2l23.1-13.3
		C235.7,251.5,236.4,250.7,236.6,249.7z"/>
	
		<ellipse transform="matrix(3.819075e-02 -0.9993 0.9993 3.819075e-02 -56.5317 517.5657)" class="st0" cx="240.6" cy="288.1" rx="20.7" ry="20.7"/>
	<path class="st0" d="M493.9,614.5c16.1-4.1,25.8-20.4,21.6-36.5l-27.8-108.8h110.7c21.7,0,45.7-25.6,33.2-62
		c-13.4-38.2-75.5-142.3-123.8-157.1c-13.7-4.2-40.2-4.2-54.2,24.9l-21.3,48.9l-32.3-44c-7-9.5-20.2-12.4-30.6-6.4
		c-11.2,6.5-14.9,20.8-8.4,32l53.6,91.9c2.6,4.6,6.6,8.4,11.7,10.9c13.9,7,30.7,1.4,37.7-12.5l1-2.1l40-79.7l9.1,11.1L490.8,372
		c4.8,6.2,9.7,12.5,14.9,18.7h-24.3l-5.6,11.2c-7,14-21.2,22.8-36.9,22.8c-6.4,0-12.8-1.5-18.5-4.4c-6.5-3.2-11.9-8.1-15.8-14.1
		c-7.3,10-9.5,23.3-4.8,35.7l58.6,154.3C463.8,610.2,479,618.3,493.9,614.5z"/>
	<path class="st0" d="M440.7,255.4c-26.9,0-48.7-21.9-48.7-48.7c0-26.9,21.9-48.7,48.7-48.7c26.9,0,48.7,21.9,48.7,48.7
		C489.4,233.6,467.6,255.4,440.7,255.4z"/>
</g>
</svg>
