<?xml version="1.0" encoding="utf-8"?>
<!-- Generator: Adobe Illustrator 25.3.0, SVG Export Plug-In . SVG Version: 6.00 Build 0)  -->
<svg version="1.1" id="contents" xmlns="http://www.w3.org/2000/svg" xmlns:xlink="http://www.w3.org/1999/xlink" x="0px" y="0px"
	 viewBox="0 0 800 800" style="enable-background:new 0 0 800 800;" xml:space="preserve">
<g>
	<path d="M560.32,654.54l41.94,27.25c8.03,5.22,20.13,3.94,26.9-2.82l49.81-49.81c6.77-6.77,8.04-18.87,2.82-26.9l-27.25-41.94
		c-1.89-2.91-4.4-6.37-7.14-9.91l-96.99,96.99C553.95,650.14,557.4,652.64,560.32,654.54z"/>
	<polygon points="225.22,260.58 318.8,354.16 354.16,318.8 260.58,225.22 228.03,162.83 152.79,115 115,152.79 162.83,228.03 	"/>
	<polygon points="498.68,428.36 413.85,513.18 531.66,630.99 630.99,531.66 540.45,441.12 	"/>
	<path d="M684.13,302.93l-22.24-72.77l-77.06,77.06l-68.57-23.49l-23.49-68.57l77.06-77.06l-72.77-22.24
		c-7.9-2.42-19.15,0.39-24.99,6.23l-88.22,88.22c-5.84,5.84-8.65,17.09-6.23,24.99l22.33,73.06L125.16,583.16
		c-13.55,13.55-13.55,35.72,0,49.26l42.42,42.42c13.55,13.55,35.72,13.55,49.26,0l274.78-274.78l73.06,22.33
		c7.9,2.42,19.15-0.39,24.99-6.23l88.22-88.22C683.74,322.08,686.55,310.83,684.13,302.93z M177.21,622.79
		c-7.34-7.34-7.34-19.24,0-26.58c7.34-7.34,19.24-7.34,26.58,0c7.34,7.34,7.34,19.24,0,26.58
		C196.46,630.13,184.55,630.13,177.21,622.79z"/>
</g>
</svg>
