<?xml version="1.0" encoding="utf-8"?>
<!-- Generator: Adobe Illustrator 25.3.0, SVG Export Plug-In . SVG Version: 6.00 Build 0)  -->
<svg version="1.1" id="Layer_1" xmlns="http://www.w3.org/2000/svg" xmlns:xlink="http://www.w3.org/1999/xlink" x="0px" y="0px"
	 viewBox="0 0 316.2 78.6" style="enable-background:new 0 0 316.2 78.6;" xml:space="preserve">
<style type="text/css">
	.st0{fill:#878787;stroke:#000000;stroke-miterlimit:10;}
</style>
<g id="svgGroup">
	<path vector-effect="non-scaling-stroke" class="st0" d="M42,54.7v-3.2h-6.1V33.1h28.9v40.1c-9.5,3.6-19.3,5.4-29.5,5.4
		c-5.2,0-9.7-0.5-13.5-1.4c-1.3-0.3-2.6-0.7-3.8-1.1c-2.2-0.8-4.2-1.8-6.1-3.1c-1.8-1.2-3.4-2.7-4.8-4.4c-2.7-3.3-4.5-7.4-5.6-12.3
		c-0.5-2.3-0.8-4.6-1.1-6.9c-0.2-2.4-0.4-4.9-0.5-7.5c0-0.9,0-1.8,0-2.7c0-5.6,0.4-10.6,1.3-15c0.2-1,0.4-1.9,0.6-2.9
		C2.4,19.1,3.2,17,4.2,15c1-2.1,2.4-4.1,4-5.8c2-2.1,4.4-3.9,7-5.1c1.5-0.7,3.1-1.3,4.7-1.8c2.1-0.6,4.3-1.1,6.5-1.4
		c2.2-0.3,4.5-0.5,7-0.7C34.9,0,36.5,0,38,0c0.6,0,1.3,0,1.9,0c1.1,0,2.4,0.1,3.7,0.2c2.2,0.2,4.3,0.4,6.5,0.7
		c1.5,0.2,2.9,0.4,4.4,0.7c0.6,0.1,1.3,0.2,1.9,0.3c0.6,0.1,1.2,0.2,1.7,0.3c1.2,0.3,2.2,0.5,3,0.8l-3.6,18.4
		c-2-0.3-3.9-0.6-5.9-0.9c-1.1-0.1-2.2-0.3-3.4-0.4c-1.6-0.2-3.2-0.3-4.8-0.4c-1.1-0.1-2.3-0.1-3.4-0.1c-5.3,0-9,0.4-11.1,1.2
		c-0.6,0.2-1.2,0.6-1.8,1c-1,0.9-1.4,2.1-1.4,3.8v34h7.9c2.4,0,4.2-0.2,5.5-0.6c0.3-0.1,0.6-0.2,0.8-0.3c1.1-0.5,1.7-1.6,1.9-3.2
		C42,55.4,42,55,42,54.7z M256.2,76.8v-60h12l6,6c7.4-5.2,15.4-7.8,24-7.8c1.7,0,3.5,0.1,5.2,0.4c1.8,0.3,3.5,0.8,5,1.4
		c1.1,0.5,2.2,1.1,3.1,1.8c2.7,2,4.4,5.2,4.7,8.6c0.1,0.5,0.1,1.1,0.1,1.6v48h-24v-42h-3.7c-0.7,0-1.4,0-2.1,0.1
		c-1.4,0.1-2.6,0.3-3.5,0.6c-0.2,0.1-0.4,0.1-0.5,0.2c-1.4,0.6-2.1,1.8-2.1,3.8v37.4H256.2z M144,56.4v4.2c1.2,0.1,2.4,0.2,3.6,0.3
		c1.2,0.1,2.4,0.1,3.6,0.1c6.9,0,13.8-1,20.5-3c0.7-0.2,1.4-0.4,2.1-0.6l2.8,17.6c-7.6,2.1-15.4,3.2-23.3,3.5
		c-1.1,0-2.2,0.1-3.3,0.1c-2.9,0-5.8-0.2-8.7-0.6c-6.8-1.1-12-3.5-15.6-7.2c-5-5.2-7.5-13.2-7.5-24c0-3,0.2-5.9,0.7-8.8
		c0.5-3.1,1.3-5.9,2.4-8.3c1.1-2.5,2.6-4.8,4.5-6.8c5-5.2,13.1-7.9,24.2-7.9c5.6,0,10.3,0.3,14,1c3.7,0.7,6.8,1.9,9.1,3.5
		c2.3,1.6,3.9,3.8,4.9,6.6c0.8,2.1,1.2,4.7,1.4,7.7c0,0.9,0.1,1.8,0.1,2.7c0,3.3-0.5,6.1-1.6,8.5c-0.1,0.1-0.1,0.3-0.2,0.4
		c-0.9,1.9-2.2,3.5-3.8,4.8c-0.6,0.5-1.3,1-2,1.4c-1.2,0.7-2.4,1.3-3.7,1.7c-1.3,0.5-2.7,0.9-4.2,1.2c-1,0.2-2,0.4-3,0.6
		c-1.8,0.3-3.7,0.5-5.6,0.7C152,56.3,148.2,56.4,144,56.4z M211.8,56.4v4.2c1.2,0.1,2.4,0.2,3.6,0.3c1.2,0.1,2.4,0.1,3.6,0.1
		c6.9,0,13.8-1,20.5-3c0.7-0.2,1.4-0.4,2.1-0.6l2.8,17.6c-7.6,2.1-15.4,3.2-23.3,3.5c-1.1,0-2.2,0.1-3.3,0.1c-2.9,0-5.8-0.2-8.7-0.6
		c-6.8-1.1-12-3.5-15.6-7.2c-5-5.2-7.5-13.2-7.5-24c0-3,0.2-5.9,0.7-8.8c0.5-3.1,1.3-5.9,2.4-8.3c1.1-2.5,2.6-4.8,4.5-6.8
		c5-5.2,13.1-7.9,24.2-7.9c5.6,0,10.3,0.3,14,1c3.7,0.7,6.8,1.9,9.1,3.5s3.9,3.8,4.9,6.6c0.8,2.1,1.2,4.7,1.4,7.7
		c0,0.9,0.1,1.8,0.1,2.7c0,3.3-0.5,6.1-1.6,8.5c-0.1,0.1-0.1,0.3-0.2,0.4c-0.9,1.9-2.2,3.5-3.8,4.8c-0.6,0.5-1.3,1-2,1.4
		c-1.2,0.7-2.4,1.3-3.7,1.7c-1.3,0.5-2.7,0.9-4.2,1.2c-1,0.2-2,0.4-3,0.6c-1.8,0.3-3.7,0.5-5.6,0.7C219.8,56.3,216,56.4,211.8,56.4z
		 M99.6,76.8h-24v-60h12l6.6,6.7c4.8-4.4,10.7-7.2,17.8-8.5l1.4,22.7c-0.4,0-0.8,0-1.1,0.1c-0.4,0-0.8,0.1-1.3,0.2
		c-0.3,0.1-0.7,0.1-1,0.2c-1.3,0.3-2.7,0.6-4.1,1c-0.9,0.3-1.7,0.5-2.5,0.9c-0.4,0.2-0.8,0.4-1.2,0.6c-0.4,0.2-0.8,0.4-1.2,0.7
		c-0.4,0.3-0.8,0.6-1.1,0.9c-0.1,0.1-0.2,0.2-0.3,0.4V76.8z M144,37.6v4.9h4.9c0.7,0,1.4,0,2-0.1c1.4-0.1,2.5-0.3,3.4-0.5
		c0.3-0.1,0.6-0.2,0.9-0.3c1.3-0.6,1.9-2,1.9-4.2v-4.9h-4.9c-2.3,0-4.2,0.2-5.5,0.6c-0.3,0.1-0.6,0.2-0.9,0.3
		C144.7,34,144,35.4,144,37.6z M211.8,37.6v4.9h4.9c0.7,0,1.4,0,2-0.1c1.4-0.1,2.5-0.3,3.4-0.5c0.3-0.1,0.6-0.2,0.9-0.3
		c1.3-0.6,1.9-2,1.9-4.2v-4.9h-4.9c-2.3,0-4.2,0.2-5.5,0.6c-0.3,0.1-0.6,0.2-0.9,0.3C212.4,34,211.8,35.4,211.8,37.6z"/>
</g>
</svg>
