<?xml version="1.0" encoding="utf-8"?>
<!-- Generator: Adobe Illustrator 25.3.0, SVG Export Plug-In . SVG Version: 6.00 Build 0)  -->
<svg version="1.1" id="Layer_1" xmlns="http://www.w3.org/2000/svg" xmlns:xlink="http://www.w3.org/1999/xlink" x="0px" y="0px"
	 viewBox="0 0 36 36" style="enable-background:new 0 0 36 36;" xml:space="preserve">
<g>
	<polygon points="10.24,24.28 6.97,19.94 22.59,19.94 22.59,16.15 6.97,16.15 10.24,11.81 5.76,11.81 1.06,18.05 5.76,24.28 	"/>
	<g>
		<path d="M16.75,32.5c-2.56,0-4.65-2.08-4.65-4.65v-3.63h3.67v3.63c0,0.53,0.45,0.97,0.97,0.97h13.54c0.53,0,0.97-0.45,0.97-0.97
			V8.15c0-0.53-0.45-0.97-0.97-0.97H16.75c-0.53,0-0.97,0.45-0.97,0.97v3.63H12.1V8.15c0-2.56,2.08-4.65,4.65-4.65h13.54
			c2.56,0,4.65,2.08,4.65,4.65v19.7c0,2.56-2.08,4.65-4.65,4.65H16.75z"/>
	</g>
</g>
</svg>
