<?xml version="1.0" encoding="UTF-8"?>
<svg xmlns="http://www.w3.org/2000/svg" xmlns:xlink="http://www.w3.org/1999/xlink" width="48px" height="48px" viewBox="0 0 48 48" version="1.1">
<g id="surface1">
<path style=" stroke:none;fill-rule:nonzero;fill:rgb(0%,0%,0%);fill-opacity:1;" d="M 19.375 0 C 9.105469 0 0.773438 8.328125 0.773438 18.601562 C 0.773438 28.871094 9.105469 37.199219 19.375 37.199219 C 23.324219 37.199219 26.988281 35.96875 30 33.871094 L 44.066406 47.933594 C 44.191406 48.0625 44.398438 48.0625 44.519531 47.941406 L 47.167969 45.292969 C 47.289062 45.171875 47.28125 44.960938 47.160156 44.839844 L 33.277344 30.957031 C 36.199219 27.671875 37.976562 23.34375 37.976562 18.601562 C 37.976562 8.328125 29.648438 0 19.375 0 Z M 19.375 35.011719 C 10.3125 35.011719 2.964844 27.664062 2.964844 18.601562 C 2.964844 9.535156 10.3125 2.1875 19.375 2.1875 C 28.4375 2.1875 35.789062 9.535156 35.789062 18.601562 C 35.789062 27.664062 28.4375 35.011719 19.375 35.011719 Z M 19.375 35.011719 "/>
</g>
</svg>
