<?xml version="1.0" encoding="utf-8"?>
<!-- Generator: Adobe Illustrator 25.3.0, SVG Export Plug-In . SVG Version: 6.00 Build 0)  -->
<svg version="1.1" id="Layer_1" xmlns="http://www.w3.org/2000/svg" xmlns:xlink="http://www.w3.org/1999/xlink" x="0px" y="0px"
	 viewBox="0 0 36 36" style="enable-background:new 0 0 36 36;" xml:space="preserve">
<g>
	<rect x="-4.5" y="29.35" width="47.36" height="4.19"/>
	<ellipse cx="27.67" cy="6.82" rx="4.71" ry="4.36"/>
	<path d="M24.87,27.14h10.81v-7.88c0-3.3-2.65-6.02-6.08-6.44l-1.94,4.83l-1.94-4.83c-3.43,0.42-6.08,3.14-6.08,6.44v1.31l5.22,1.65
		V27.14z"/>
	<path d="M23.08,23.41l-8.3-2.62v-6.36H9.16v-1.57h3.71c0.55,0,0.99-0.41,0.99-0.92V7.88c0-0.51-0.44-0.92-0.99-0.92H2.7
		c-0.55,0-0.99,0.41-0.99,0.92v4.07c0,0.51,0.44,0.92,0.99,0.92h3.71v1.57H0.8v12.7h22.28V23.41z M3.69,8.79h8.19v2.24H3.69V8.79z"
		/>
</g>
</svg>
