<?xml version="1.0" encoding="utf-8"?>
<!-- Generator: Adobe Illustrator 25.3.0, SVG Export Plug-In . SVG Version: 6.00 Build 0)  -->
<svg version="1.1" id="Layer_1" xmlns="http://www.w3.org/2000/svg" xmlns:xlink="http://www.w3.org/1999/xlink" x="0px" y="0px"
	 viewBox="0 0 36 36" style="enable-background:new 0 0 36 36;" xml:space="preserve">
<g>
	<circle cx="11.19" cy="12.15" r="5.84"/>
	<path d="M21.93,31.75v-5.86c0-3.49-2.83-6.31-6.31-6.31H6.77c-3.49,0-6.31,2.83-6.31,6.31v5.86H21.93z"/>
</g>
<g>
	<path d="M34.19,10.6l-1.8-0.25C32.29,10.02,32.15,9.7,32,9.4l1.1-1.45c0.14-0.19,0.12-0.47-0.04-0.64l-1.43-1.44
		c-0.16-0.17-0.45-0.18-0.64-0.04l-1.45,1.1c-0.3-0.16-0.62-0.29-0.95-0.4l-0.25-1.8c-0.03-0.23-0.25-0.42-0.48-0.42l-2.03,0
		c-0.23,0-0.45,0.19-0.48,0.42l-0.25,1.8c-0.33,0.1-0.65,0.24-0.95,0.39l-1.45-1.1c-0.19-0.14-0.47-0.12-0.64,0.04l-1.44,1.43
		c-0.17,0.16-0.18,0.45-0.04,0.64l1.1,1.45c-0.16,0.3-0.29,0.62-0.4,0.95l-1.8,0.25c-0.23,0.03-0.42,0.25-0.42,0.48l0,2.03
		c0,0.23,0.19,0.45,0.42,0.48l1.8,0.25c0.1,0.33,0.24,0.65,0.39,0.95l-1.1,1.45c-0.14,0.19-0.12,0.47,0.04,0.64l1.43,1.44
		c0.16,0.17,0.45,0.18,0.64,0.04l1.45-1.1c0.3,0.16,0.62,0.29,0.95,0.4l0.25,1.8c0.03,0.23,0.25,0.42,0.48,0.42l2.03,0
		c0.23,0,0.45-0.19,0.48-0.42l0.25-1.8c0.33-0.1,0.65-0.24,0.95-0.39l1.45,1.1c0.19,0.14,0.47,0.12,0.64-0.04l1.44-1.43
		c0.17-0.16,0.18-0.45,0.04-0.64l-1.1-1.45c0.16-0.3,0.29-0.62,0.4-0.95l1.8-0.25c0.23-0.03,0.42-0.25,0.42-0.48l0-2.03
		C34.61,10.85,34.43,10.63,34.19,10.6z M26.83,14.07c-1.1,0-1.99-0.89-1.98-1.99c0-1.1,0.89-1.99,1.99-1.98
		c1.1,0,1.99,0.89,1.98,1.99C28.81,13.19,27.92,14.08,26.83,14.07z"/>
</g>
</svg>
